<?xml version="1.0" encoding="UTF-8"?>
<svg id="Warstwa_1" data-name="Warstwa 1" xmlns="http://www.w3.org/2000/svg" viewBox="0 0 845 845">
  <defs>
    <style>
      .cls-1, .cls-2, .cls-3, .cls-4, .cls-5, .cls-6, .cls-7, .cls-8, .cls-9, .cls-10, .cls-11, .cls-12 {
        stroke: #000;
      }

      .cls-1, .cls-4, .cls-5, .cls-6, .cls-7, .cls-8, .cls-9, .cls-13, .cls-10 {
        fill-rule: evenodd;
      }

      .cls-14, .cls-10 {
        fill: #fff;
      }

      .cls-15 {
        fill: #172715;
      }

      .cls-2 {
        fill: #feffff;
      }

      .cls-2, .cls-11, .cls-12, .cls-16 {
        stroke-linecap: round;
      }

      .cls-3, .cls-12, .cls-16 {
        fill: none;
      }

      .cls-4 {
        fill: #00ab4e;
      }

      .cls-5 {
        fill: #00ac4e;
      }

      .cls-6 {
        fill: #252122;
      }

      .cls-7 {
        fill: #0e8d49;
      }

      .cls-8 {
        fill: #d6ac00;
      }

      .cls-9 {
        fill: #ffc800;
      }

      .cls-13 {
        fill: #fdaf17;
        stroke: #010000;
      }

      .cls-16 {
        stroke: #504e4b;
      }
    </style>
  </defs>
  <rect class="cls-15" width="845" height="845"/>
  <g>
    <g id="g3342">
      <g id="g3141">
        <path id="path1334" class="cls-9" d="m282.89,202.29l-82.23.41v123.55c3.4,40.04,38.34,77.71,82.23,76.45v-200.41Z"/>
        <path id="path2482" class="cls-4" d="m235.87,249.15l.12-6.39c.12-2.58-1.41-2.88-2.6-2.01-1.32.97-2.38.1-1.89-3.43.69-4.5-2.35-5.28-3.32-3.32-1.49,2.46-2.51.36-2.01-2.37.51-4.62-2.44-5.83-4.02-3.08-1.62,2.12-2.56,1.7-2.96-.71-.11-2.15-2.07-2.14-4.02-2.13-2.14.34-3.34,1.63-3.91,3.55-.47,2.57.64,3.65,2.49,4.02,2.19-.08,3.64,1.58.71,3.2-2.57,1.62-2.73,4.11,2.6,3.91,5.18-.88,4.16,1.49,2.84,1.89-2.88,1.54-.18,3.98,4.02,3.32,4.17-.51,5.19,1.27,3.67,1.89-1.89,1.73-.05,3.29,3.2,2.49,1.74-.35,3.46-.69,5.09-.83Z"/>
        <path id="path2486" class="cls-4" d="m235.83,292.8l.13-6.98c.13-2.82-1.56-3.15-2.88-2.2-1.46,1.06-2.63.11-2.09-3.75.76-4.92-2.6-5.77-3.66-3.62-1.64,2.69-2.77.4-2.22-2.59.57-5.05-2.69-6.37-4.44-3.36-1.79,2.32-2.82,1.85-3.27-.78-.11-2.35-2.29-2.33-4.44-2.33-2.36.38-3.69,1.78-4.31,3.88-.52,2.82.71,3.99,2.75,4.4,2.42-.09,4.02,1.73.78,3.49-2.84,1.77-3.01,4.49,2.88,4.27,5.72-.97,4.59,1.63,3.14,2.07-3.18,1.68-.2,4.35,4.44,3.62,4.6-.55,5.73,1.39,4.05,2.07-2.09,1.89-.05,3.6,3.53,2.72,1.92-.39,3.82-.76,5.62-.91Z"/>
        <path id="path2488" class="cls-4" d="m236.25,325.88l-1.91-6.41c-.7-2.61-2.36-2.44-3.3-1.2-1.05,1.37-2.4.84-3.03-2.84-.72-4.71-4.08-4.54-4.44-2.28-.74,2.92-2.45,1.14-2.81-1.74-.94-4.77-4.35-5.06-5.1-1.83-.98,2.62-2.08,2.48-3.25.21-.79-2.12-2.8-1.49-4.8-.88-2.08,1.01-2.9,2.66-2.87,4.75.34,2.71,1.81,3.44,3.82,3.24,2.22-.76,4.23.45,1.74,2.97-2.11,2.4-1.49,4.94,3.91,3.09,5.02-2.48,4.73.2,3.51,1.01-2.46,2.42,1.08,4.02,5.17,2.06,4.1-1.79,5.71-.33,4.36.76-1.39,2.31,1,3.3,4.06,1.49,1.66-.89,3.32-1.76,4.94-2.4h0Z"/>
        <path id="path2490" class="cls-4" d="m246.39,250.73l1.04-6.31c.34-2.56,1.91-2.58,2.92-1.51,1.13,1.19,2.33.53,2.48-3.03.13-4.56,3.27-4.77,3.86-2.66,1.01,2.69,2.4.81,2.41-1.96.33-4.64,3.45-5.29,4.52-2.3,1.21,2.38,2.21,2.13,3.04-.16.49-2.1,2.42-1.72,4.35-1.37,2.04.72,2.99,2.21,3.2,4.2,0,2.62-1.29,3.48-3.17,3.51-2.14-.48-3.87.9-1.28,3.01,2.23,2.06,1.94,4.54-3.27,3.37-4.93-1.8-4.36.72-3.14,1.35,2.56,2.03-.54,3.95-4.56,2.53-4-1.25-5.33.31-3.95,1.2,1.55,2.04-.55,3.24-3.59,1.87-1.64-.66-3.28-1.3-4.85-1.73h0Z"/>
        <path id="path2492" class="cls-4" d="m249.25,289.27l.47-6.97c.11-2.82,1.82-3.01,3.05-1.94,1.37,1.18,2.61.33,2.4-3.56-.34-4.97,3.08-5.53,3.96-3.3,1.4,2.82,2.73.63,2.44-2.39-.13-5.08,3.23-6.12,4.72-2.97,1.58,2.46,2.65,2.09,3.32-.5.32-2.33,2.48-2.13,4.63-1.94,2.33.57,3.52,2.09,3.97,4.23.27,2.85-1.05,3.91-3.11,4.15-2.41-.3-4.16,1.37-1.08,3.41,2.67,2,2.62,4.73-3.23,4.01-5.61-1.45-4.71,1.23-3.3,1.79,3.03,1.94-.17,4.35-4.74,3.23-4.54-.95-5.83.9-4.21,1.72,1.92,2.06-.25,3.58-3.75,2.4-1.88-.55-3.75-1.08-5.53-1.38Z"/>
        <path id="path2221" class="cls-5" d="m240.44,243.03l-.02,9.89c-7.85-8.65-15.72-17.6-25.57-23.52,8.91,7.92,16.74,16.38,24.51,24.88l-3.95-2.17-.93,1.01c2.01,1.5,5.07,2.65,4.65,4.96l-2.4-.93-.31,1.24c1.45.84,3.09,1.54,2.56,3.79l-.08,5.58-1.01.93-4.18-4.11-.93,1.32,5.19,5.5-3.41-1.63-.39,1.16c2.14,1.21,4.37,2.31,4.81,5.5l-.7,18.36c-7.39-7.59-15.48-16.6-24.25-22.54l24.56,25.41-2.94-2.01-1.16,1.16c2.36.77,3.98,2.46,3.72,6.43l.08,3.57-4.57-3.18-.39,1.94,5.34,3.95-3.49-.7-.62,1.24c2.13.23,3.76,1.15,3.57,4.57l-.15,10.77c-9.27-4.88-18.54-8.24-27.81-11.39l25.49,12.78,1.94,3.72v12.7c-.23,5.42-1.86,15.87-4.42,16.04l-2.71.23c-1,.89-2.13.76-3.33,0-2.47-2.07-3.77-.78-4.81,1.24,1.13-.59,2.24-1.32,3.57-.31l2.4-.23c-3.99.59-3.01,3.02-3.33,4.96,1.47-3.38,3.95-3.22,6.2-3.87,4.23.93,5.02-1.79,6.27-4.03-.98,2.18-1.08,4.98-4.57,5.42-3.63-.39-3.81,1.71-3.79,3.95.41-2.41,3.48-3.23,5.81-4.49-2.46,2-3.64,3.84-2.79,5.42,1.07-1.75,2.01-3.7,3.87-4.26,1.74-.85,2.54-2.62,3.49-4.26.35,1.58.93,3.23-.31,4.42-.84,1.85-.08,3.18.23,4.65.39-3.02,1.96-4.48,3.57-5.89-1.72,2.43-.7,3.83.85,5.03-.29-1.72-.29-3.34.85-4.65-.24-1.79.32-3.06,1.32-4.03,1.52,3.11,1.77,6.64,2.09,10.15.43-1.34,1.23-2.54.7-4.26,1.72.68,2.73,2.25,3.64,3.95.3-3.47-3.93-5.17-4.18-9.84.89,1.7.69,4.69,3.64,3.95,2.38-.01,2.8,1.22,2.94,2.63-.54,1.46.34,2.21,1.86,2.63-.59-1.15-1.08-2.36-.85-3.72,1.51.11,2.12,3.17,3.57,3.72.68.09,1.22.03,1.09-.7-1.86-.87-2.55-4.54-4.26-4.42-1.74-.58-2.8-1.67-3.72-2.87,2.95-1.77,4.78-.55,6.51.93,1.71,1.77,4.85,2.96,4.34,5.66l.7.08.62-1.94c.84,1.43,1.64,2.87,3.49,4.11l1.39-.39c-1.32-1.11-2.27-2.36-2.56-3.87-.46-.86-.68-1.91-2.33-1.78-2.18-.64-3.21-1.85-4.18-3.1-1.65-1.98-3.8-2.61-6.27-2.33-5.68-.23-4.03-4.13-5.27-6.58l.02-15.06c1.04-3.48,3.19-4.73,5.37-5.92-2.34-.42-4.63-.24-6.68,2.52l-.22-22.13c1.42-3.3,3.38-5.25,5.37-7.12l-.99-2.19-4.16,4.71-1.2-.55c-1.23-7.47,2.02-8.67,5.04-10.19l-.55-1.75-4.27,2.96c7.51-9.36,15.98-18.13,26.41-25.75-9.35,5.47-19.96,12.8-27.94,23.23v-19.39c.79-2.52,2.52-3.49,4.16-4.6l-.88-1.43-2.85,1.32,6.46-5.81-.99-1.86-7.12,6.03.33-7.67c.41-2.17,1.69-2.61,2.63-3.72l-.77-1.53-2.08,1.53c7.87-8.74,18.13-14.74,27.94-21.26-11.23,5.2-22.06,10.92-30.13,20.16l.55-12.05h-1.9s0,0,0,0Z"/>
        <path id="path2494" class="cls-4" d="m247.81,324.77l1.41-6.54c.49-2.66,2.16-2.62,3.2-1.46,1.15,1.29,2.46.65,2.8-3.07.35-4.75,3.72-4.84,4.25-2.62.96,2.85,2.54.95,2.67-1.95.57-4.83,3.94-5.38,4.94-2.22,1.18,2.53,2.26,2.31,3.26-.05.63-2.17,2.67-1.7,4.71-1.25,2.15.84,3.1,2.42,3.23,4.51-.13,2.73-1.54,3.57-3.56,3.53-2.27-.59-4.18.78-1.51,3.09,2.29,2.23,1.87,4.81-3.65,3.39-5.19-2.08-4.69.57-3.42,1.28,2.64,2.22-.76,4.09-5,2.46-4.23-1.47-5.72.11-4.29,1.09,1.56,2.19-.74,3.36-3.93,1.8-1.73-.76-3.45-1.49-5.12-2h0Z"/>
        <path id="path2225" class="cls-5" d="m244.64,326.96c8.23-6.95,18.35-11.27,27.94-16.32-9.61,5.66-19.01,11.48-27.17,18.3"/>
        <path id="path2293" class="cls-4" d="m236.84,236.56l10.03.32c-.06-4.64,1.72-13.03-4.54-13.72-6.19.61-5.19,7.43-5.49,13.4Z"/>
        <path id="path2227" class="cls-7" d="m235.32,236.57h13.12c-.27,3.66-1.61,6.83-7.06,6.98-6.23-.5-5.97-4.57-6.06-6.98Z"/>
        <path id="path2229" class="cls-7" d="m245.21,236.66l2.55,2.76"/>
        <path id="path2231" class="cls-7" d="m242.11,236.68l4.7,4.56"/>
        <path id="path2233" class="cls-7" d="m238.98,236.48l6.14,6.14"/>
        <path id="path2235" class="cls-7" d="m236.17,236.6l6.63,6.7"/>
        <path id="path2239" class="cls-7" d="m235.41,238.31l4.57,4.9"/>
        <path id="path2241" class="cls-7" d="m247.48,236.49l-7.02,6.77"/>
        <path id="path2243" class="cls-7" d="m244.71,236.59l-6.27,6.1"/>
        <path id="path2245" class="cls-7" d="m242.08,236.59l-5.18,4.96"/>
        <path id="path2247" class="cls-7" d="m239.06,236.48l-3.32,3.41"/>
        <path id="path2249" class="cls-7" d="m236.3,236.63l-.97,1.18"/>
        <path id="path2291" class="cls-7" d="m248.03,238.7l-4.82,4.6"/>
        <path id="path2295" class="cls-11" d="m242.96,222.57c0,.26-.24.48-.53.48s-.53-.21-.53-.48.24-.48.53-.48.53.21.53.48Z"/>
        <path id="path2316" class="cls-4" d="m224.12,266.19l6.75-8.85c-3.81-2.65-9.48-9.14-14.09-3.9-3.51,5.93,2.68,9.01,7.34,12.76h0Z"/>
        <g id="g3070">
          <path id="path2320" class="cls-7" d="m223.57,266.98l7.65-10.66c2.82,2.35,4.61,5.29,1.55,9.8-4.04,4.78-7.19,2.19-9.21.86Z"/>
          <path id="path2322" class="cls-7" d="m229.41,259l3.73-.46"/>
          <path id="path2324" class="cls-7" d="m227.62,261.54l6.45-1.16"/>
          <path id="path2326" class="cls-7" d="m225.63,263.96l8.57-1.41"/>
          <path id="path2328" class="cls-7" d="m224.08,266.31l9.31-1.48"/>
          <path id="path2332" class="cls-7" d="m225.04,267.93l6.65-.85"/>
          <path id="path2334" class="cls-7" d="m230.6,257.06l1.4,9.65"/>
          <path id="path2336" class="cls-7" d="m229.06,259.37l1.3,8.66"/>
          <path id="path2338" class="cls-7" d="m227.52,261.51l1.01,7.1"/>
          <path id="path2340" class="cls-7" d="m225.68,263.9l.83,4.69"/>
          <path id="path2342" class="cls-7" d="m224.19,266.23l.39,1.48"/>
          <path id="path2344" class="cls-7" d="m232.71,257.9l.93,6.6"/>
        </g>
        <path id="path2348" class="cls-4" d="m260.1,265.31l-5.22-10.31c4.27-1.83,11.06-7.11,14.77-.88,2.48,6.69-4.24,8.44-9.55,11.19h0Z"/>
        <path id="path2352" class="cls-7" d="m260.37,266.05l-5.49-11.92c-3.22,1.77-5.53,4.32-3.39,9.33,3.06,5.45,6.64,3.51,8.88,2.59h0Z"/>
        <path id="path2354" class="cls-7" d="m256.15,257.1l-3.57-1.16"/>
        <path id="path2356" class="cls-7" d="m257.43,259.93l-6.11-2.36"/>
        <path id="path2358" class="cls-7" d="m258.92,262.69l-8.14-3.01"/>
        <path id="path2360" class="cls-7" d="m259.99,265.29l-8.86-3.22"/>
        <path id="path2364" class="cls-7" d="m258.75,266.7l-6.36-2.1"/>
        <path id="path2366" class="cls-7" d="m255.36,254.97l-3.21,9.21"/>
        <path id="path2368" class="cls-7" d="m256.42,257.53l-2.92,8.25"/>
        <path id="path2370" class="cls-7" d="m257.53,259.92l-2.35,6.78"/>
        <path id="path2372" class="cls-7" d="m258.88,262.62l-1.7,4.44"/>
        <path id="path2374" class="cls-7" d="m259.9,265.19l-.66,1.38"/>
        <path id="path2376" class="cls-7" d="m253.12,255.4l-2.16,6.3"/>
        <path id="path2380" class="cls-4" d="m260.71,304.33l-4.9-10c4.27-1.81,11.14-7,14.64-.96,2.28,6.5-4.42,8.25-9.74,10.96Z"/>
        <g id="g3126">
          <path id="path2384" class="cls-7" d="m261.07,305.23l-5.37-11.97c-3.24,1.74-5.57,4.27-3.48,9.3,3.01,5.48,6.61,3.58,8.85,2.68Z"/>
          <path id="path2386" class="cls-7" d="m256.94,296.24l-3.56-1.2"/>
          <path id="path2388" class="cls-7" d="m258.19,299.08l-6.08-2.42"/>
          <path id="path2390" class="cls-7" d="m259.65,301.86l-8.11-3.09"/>
          <path id="path2392" class="cls-7" d="m260.7,304.47l-8.83-3.31"/>
          <path id="path2396" class="cls-7" d="m259.45,305.87l-6.34-2.16"/>
          <path id="path2398" class="cls-7" d="m256.17,294.11l-3.3,9.18"/>
          <path id="path2400" class="cls-7" d="m257.21,296.68l-3,8.22"/>
          <path id="path2402" class="cls-7" d="m258.29,299.08l-2.41,6.75"/>
          <path id="path2404" class="cls-7" d="m259.62,301.79l-1.75,4.42"/>
          <path id="path2406" class="cls-7" d="m260.61,304.37l-.68,1.37"/>
          <path id="path2408" class="cls-7" d="m253.93,294.51l-2.23,6.28"/>
        </g>
        <path id="path2444" class="cls-4" d="m224.51,307.64l4.9-10c-4.27-1.81-11.14-7-14.64-.96-2.28,6.5,4.42,8.25,9.74,10.96Z"/>
        <g id="g3098">
          <path id="path2448" class="cls-7" d="m224.15,308.54l5.37-11.97c3.24,1.74,5.57,4.27,3.48,9.3-3.01,5.49-6.61,3.58-8.85,2.68Z"/>
          <path id="path2450" class="cls-7" d="m228.28,299.56l3.56-1.2"/>
          <path id="path2452" class="cls-7" d="m227.03,302.4l6.08-2.42"/>
          <path id="path2454" class="cls-7" d="m225.57,305.18l8.11-3.09"/>
          <path id="path2456" class="cls-7" d="m224.52,307.79l8.83-3.31"/>
          <path id="path2460" class="cls-7" d="m225.77,309.18l6.34-2.16"/>
          <path id="path2462" class="cls-7" d="m229.05,297.42l3.3,9.18"/>
          <path id="path2464" class="cls-7" d="m228.01,299.99l3,8.22"/>
          <path id="path2466" class="cls-7" d="m226.93,302.39l2.41,6.75"/>
          <path id="path2468" class="cls-7" d="m225.6,305.1l1.75,4.42"/>
          <path id="path2470" class="cls-7" d="m224.61,307.68l.68,1.37"/>
          <path id="path2472" class="cls-7" d="m231.29,297.82l2.23,6.28"/>
        </g>
        <path id="path2474" class="cls-11" d="m270.78,254.06c0,.26-.24.48-.53.48s-.53-.21-.53-.48.24-.48.53-.48.53.21.53.48Z"/>
        <path id="path2476" class="cls-11" d="m217.04,252.88c0,.26-.24.48-.53.48s-.53-.21-.53-.48.24-.48.53-.48.53.21.53.48Z"/>
        <path id="path2478" class="cls-11" d="m215.38,296.21c0,.26-.24.48-.53.48s-.53-.21-.53-.48.24-.48.53-.48.53.21.53.48Z"/>
        <path id="path2480" class="cls-11" d="m271.14,293.96c0,.26-.24.48-.53.48s-.53-.21-.53-.48.24-.48.53-.48.53.21.53.48Z"/>
        <path id="path2484" class="cls-3" d="m226.05,231.16h-.12"/>
      </g>
      <g id="g3300">
        <path id="path2209" class="cls-5" d="m283.58,202.29l82.23.41v123.55c-3.4,40.04-38.34,77.71-82.23,76.45v-200.41h0Z"/>
        <g id="g3233">
          <g id="g2640">
            <path id="path2594" class="cls-10" d="m317.68,301.57c.61-8.66-4.2-14.23-7.63-20.58-6.46-11.97-1.13-21.02,4.55-24.52,3.43-2.92,3.88-7.44-1.31-9.02l-26.21-7.02h20.74c1.1-1.21,2.65-2.14,4.78-2.11.42,2.19,1.87,4.36,5.17,5.74,5.21,1.16,8.34,8.03,2.78,14.65-4.99,4.54-8.25,9.61-4.47,16.81,1.83,2.16,3.65,1.57,5.47-.15,6.47-6.1,9.13-5.08,15.11-1.08,4.26,2.36,8.01,5.87,11.22,10.05,10.15,9.45,16.7,40.98,13.53,50.39-.28-.39-.63-.7-.6-1.48,1.38-10.28-2.93-18.57-5.9-27.34,3.14,8.99,6.64,17.93,5.29,27.6-.71,1.58-1.17,1.97-1.65,2.43-3-8.11-6.64-15.52-14.93-19.27-5.58-3.3-11.01-6.73-15.45-11.63l-1.39,3.13-1.04-6.33c.12,2.86-.29,5.36-1.56,7.29.65-2.63.12-5.26-.61-7.9-.31,2.49-1.36,3.74-2.35,5.12.72-2.15.72-4.48.52-6.86-.46,1.45-1.03,2.76-2.17,3.3.96-2.49.25-4.98-.61-7.46l-1.28,6.25h0Z"/>
            <path id="path2596" class="cls-6" d="m312.45,238.21c5.89-.75,8.28,2.64,10.68,5.99,1.58,2.8,3.39,6.52,7.03,7.29-1.62,1.03-2.94-.05-4.34-.52l3.56,2.86c-2.04-.28-4.09-.43-5.9-2.95-.22-3.5-2.4-5.52-5.38-6.94-3.44-.87-4.98-3.01-5.64-5.73h0Z"/>
            <path id="path2604" class="cls-6" d="m356,309.14l-1.34-3.22c-.21.73-.15,1,.36,3.19-3.14-.97-3.73-3.77-5.24-5.91.42,1.6.87,3.22,2.18,4.95-3.43-.66-3.85-3.12-5.45-5.6.39,1.23.29,2.21,1.16,3.44-3.57-1.26-4.29-3.75-5.24-6.13-.3,1.72.57,2.76,1.11,4-2.96.54-3.17-3.04-4.23-5.34-.26.92.12,2.35.49,3.77-2.64-1.34-2.9-3.36-3.61-5.66-.19,1.08-.24,2.22.33,3.68-2.81-.98-3.6-3.98-4.68-6.69-.08,1.26.11,2.15.57,4.24-4.75-4.13-6.35-8.91-5.7-15.28.87-4.16,3.55-5.27,8.14-3.68-1.94-1.54-5.91-4.6-9.61-1.37-2.67,3.76-1.64,6.91-.86,10.06l-3.08-1.71,4.61,3.18c.55.87.38,1.26.22,1.65l-2.03-1.54,3.57,3.09c.02.72-.02,1.31-.48,1.06l-2.8-2.22,3.96,3.86c.39.85-.1.9-.58.97l-1.74-1.35c.92,2.01,3.34,3.55,4.44,5.41.25.57,0,.78-.39.87-.68-.99-1.35-1.38-2.03-1.74l2.61,3.96c.19,1.21-.29,1.51-1.16,1.26-1.08-2.25-4.3-6.71-4.54-6.18,1.28,1.76,2.52,3.57,2.61,6.28-.35.47-.89.25-1.24,0l.5,3.3,1.31-2.8c1.85,1.84,3.78,3.62,5.88,5.3,1.25.95,1.75,1.09,3.01,2.04l7.15,4.45c7.22,3.22,11.77,10.8,14.45,18.74.48-.47.9-1.03,1.21-1.75-.31.12,1.19.14,1-.31.97-7.81-.41-11.92-2.29-17.2,0,0-2.34-6-2.55-7.06h0Z"/>
            <path id="path2606" class="cls-12" d="m316.86,256.15c-1,1.54-2.83,2.17-4.29,3.97"/>
            <path id="path2608" class="cls-12" d="m310.71,260.06c0,1.43.25,2.6.71,3.56"/>
            <path id="path2610" class="cls-12" d="m309.1,262.47c.36,1.39.77,2.76,1.6,3.91"/>
            <path id="path2612" class="cls-12" d="m308.12,264.96c.17,1.57,1.12,3.15,2.23,4.71"/>
            <path id="path2616" class="cls-12" d="m307.41,268.96c.8,2.35,1.74,4.55,3.47,5.96"/>
            <path id="path2618" class="cls-12" d="m309.37,275.72c.93,1.85,2.08,3.6,4.18,4.98"/>
            <path id="path2620" class="cls-12" d="m312.84,282.31c1.03,1.62,2.23,2.89,3.74,3.56"/>
            <path id="path2622" class="cls-12" d="m315.6,287.47c1.16,1.64,2.06,3.76,3.65,4.54"/>
            <path id="path2624" class="cls-10" d="m330.55,297.52c.08,2.09,1.05,3.87,2.95,4.99.72-.4-.45-2.98-.08-3.86-1.07.3-1.91-.72-2.87-1.13Z"/>
            <path id="path2626" class="cls-10" d="m334.17,299.48c-.12,3.37.93,5.75,3.11,7.18.89-.76-1.32-4.63-.27-5.91-1.21-.07-1.97-.74-2.84-1.27h0Z"/>
            <path id="path2628" class="cls-10" d="m337.16,300.99c.31,2.78.92,6.45,2.59,6.75.46-1.26-.77-4.73.11-5.02-1.35-.13-1.93-1.03-2.71-1.73Z"/>
            <path id="path2630" class="cls-10" d="m340.17,303.01l2.36,1.67c-1.38.06.82,3.63.4,5.42-2.75-.66-2.47-4.35-2.77-7.09h0Z"/>
            <path id="path2632" class="cls-10" d="m342.76,304.57c.97-.63,1.83,0,2.65,1.04-1.55,1.62,1.93,6.16,1.67,7.27-2.75.02-5.13-6.93-4.33-8.31Z"/>
            <path id="path2634" class="cls-10" d="m345.7,305.84c-.38,3.6,2.37,8.18,5.94,9.81.79-.71-4.07-5.04-3.23-9.23-.66.05-.9.52-2.71-.58h0Z"/>
            <path id="path2636" class="cls-10" d="m348.88,307.17c1.25,1.22,2.5,1.33,3.75,1.5-.73,1.37,2.94,6.87,2.59,8.14-4.4-2.64-5.93-5.78-6.35-9.64h0Z"/>
            <path id="path2638" class="cls-10" d="m353.03,308.72c.87.34,1.81,1.08,2.54.58l2.88,8.37c-2.46.97-4.45-5.67-5.71-8.83"/>
            <path id="path2592" class="cls-8" d="m287.31,240.57h20.65c2.01.76,1.52,3.75,3.29,5.09-8.93-1.52-17.26-3.15-23.94-5.09Z"/>
            <path id="path2598" class="cls-16" d="m299.78,241.94l6.16-.09"/>
            <path id="path2600" class="cls-2" d="m312.59,242.68c0,.52-.46.94-1.03.94s-1.03-.42-1.03-.94.46-.94,1.03-.94,1.03.42,1.03.94Z"/>
            <path id="path2602" class="cls-11" d="m311.76,242.64c0,.19-.15.35-.35.35s-.35-.15-.35-.35.15-.35.35-.35.35.15.35.35h0Z"/>
          </g>
          <path id="path3231" class="cls-10" d="m354.29,317.29c.97-.6,2.92,2,4.41.9.54,1.25.86,2.91,1.23,4.28.63,3.32,1.06,5.84.4,10.49l-1.13,2.39c.62-8.5-1.86-13.6-4.91-18.06Z"/>
        </g>
        <g id="g3281">
          <path id="path3261" class="cls-13" d="m332.8,308.41l3.93,2.77c-3.99,1.63.6,7.48-3.12,8.78.64-.11,1.26-.36,1.73-1.73.01,1.91-.87,4.13-1.96,4.39,1.47-.49,1.28-1.15,1.73-1.85-1.99,6.08-2.66,11.97-3.58,17.9.17,1.71-1.19,3.72,1.48,4.4,2.52.39,4.85-1.41,5.68-.13l-.23,1.73c-.67.53-1.3.04-3.02-.07-1.84-.12-4.11-.18-4.95-.74-2.28.2-5.44,3.42-8.89,3.23-.86.32-1.3.61-2.32.44l-.49-1.53c1.28-.49,2.23.23,3.33.04,1.27-.23,2.57-.82,3.98-1.38-9.32.74-8.67-.04-11,.51-1.08.5-2.09.58-3,.11l-.37-1.51c1.46-.67,3.08-.82,5.02-.04,1.34.63,4.44.02,6.71-.12-.82-.88-2.72-1.25-4.98-1.49l-1.27.11.11-1.62c1.41-.09,2.9.13,4.62,1.27,2.16.43,5.92,1.75,7.04-1.04,1.14-5.47,2.57-10.68,2.54-17.32-.29-2.12-.48-3.39.58-5.63,1.64-2.38.5-6.58.71-9.51h0Z"/>
          <path id="path3263" class="cls-1" d="m317.31,340.77c-.42-.61-3.49.27-3.45,1.16,1.1-.54,2.27-.21,3.45.16v-1.32Z"/>
          <path id="path3265" class="cls-1" d="m311.79,343.91l.25,1.41c-1.71-.27-2.65.17-3.36.82.65-1,1.02-2.18,3.11-2.23Z"/>
          <path id="path3267" class="cls-1" d="m318.82,346.11c-1.83.46-2.32,1.41-2.57,2.45.79-.85,1.8-1.23,3.01-1.16l-.44-1.29h0Z"/>
          <path id="path3269" class="cls-1" d="m338.91,343.12c1.88.11,2.54.96,2.98,1.93-.93-.69-2-.88-3.17-.59l.19-1.35h0Z"/>
        </g>
        <g id="g3288">
          <path id="path3290" class="cls-13" d="m334.12,305.53l5.02,2.82c-2.84,2.6,1.6,13.65-1.91,15.44.62-.19,1.2-.52,1.48-1.95.27,1.89-.31,4.21-1.36,4.61,1.39-.69,1.11-1.32,1.47-2.06-1.15,6.29-1.03,13.58-1.14,19.58.4,1.67-.68,3.85,2.06,4.16,2.55.05,4.62-2.04,5.61-.89v1.75c-.59.62-1.28.22-2.99.33-1.84.13-4.1.38-5.01-.07-2.23.5-4.69,3.5-8.18,4.73-.8.43-.97,1.26-2,1.23l-.69-1.45c1.2-.65,2.19-.21,3.07-.89.95-.73,2.25-1.49,3.57-2.24-9.14,1.98-8.6,1.13-10.83,1.99-1,.64-1.99.85-2.96.51l-.57-1.45c1.35-.86,2.94-1.23,4.97-.71,1.41.44,4.41-.57,6.64-1.02-.93-.76-2.86-.87-5.14-.81l-1.24.29-.1-1.62c1.39-.28,2.89-.26,4.75.64,2.2.13,6.1.94,6.84-1.97.4-5.58,1.11-12.29.19-18.87-.57-2.06-.93-3.3-.18-5.66,1.29-3.17-.25-13.35-1.33-16.44h-.01Z"/>
          <path id="path3292" class="cls-1" d="m323.87,347.96c-.5-.55-3.42.74-3.26,1.61,1.01-.68,2.23-.51,3.44-.31l-.18-1.31h0Z"/>
          <path id="path3294" class="cls-1" d="m318.81,351.81l.44,1.36c-1.73-.04-2.6.52-3.22,1.26.51-1.08.72-2.31,2.78-2.62h0Z"/>
          <path id="path3296" class="cls-1" d="m326.36,353.91c-1.75.7-2.11,1.71-2.22,2.77.67-.95,1.62-1.46,2.83-1.55l-.61-1.22h0Z"/>
          <path id="path3298" class="cls-1" d="m345.59,347.39c1.88-.14,2.65.61,3.21,1.52-1.02-.56-2.1-.6-3.22-.15v-1.36s.01,0,.01,0Z"/>
        </g>
      </g>
    </g>
    <g>
      <path class="cls-14" d="m200.66,531.2v-64.91h12.05v64.91h-12.05Zm10.66-15.3l-.56-14.28,33.94-35.33h13.63l-28.28,30.04-6.68,7.33-12.06,12.24Zm34.59,15.3l-24.94-29.58,8.07-8.81,31.07,38.39h-14.19Z"/>
      <path class="cls-14" d="m266.31,531.2v-49.52h11.03v13.63l-1.3-3.99c1.42-3.34,3.74-5.89,6.95-7.65s7.14-2.64,11.78-2.64v11.03c-.44-.06-.87-.11-1.3-.14-.44-.03-.83-.05-1.2-.05-4.45,0-7.97,1.27-10.57,3.8-2.6,2.54-3.89,6.4-3.89,11.59v23.93h-11.5Z"/>
      <path class="cls-14" d="m326.12,531.86c-4.2,0-7.91-.79-11.13-2.37-3.21-1.57-5.73-3.99-7.56-7.23s-2.74-7.34-2.74-12.29v-28.28h11.68v26.8c0,4.39,1.02,7.68,3.06,9.88s4.88,3.29,8.53,3.29c2.72,0,5.1-.56,7.14-1.67,2.04-1.11,3.62-2.78,4.73-5.01,1.11-2.23,1.67-4.98,1.67-8.25v-25.04h11.59v49.52h-11.03v-13.45l1.95,4.17c-1.67,3.15-4.11,5.59-7.33,7.33-3.21,1.73-6.74,2.6-10.57,2.6h0Z"/>
      <path class="cls-14" d="m383.71,531.86c-4.2,0-8.19-.54-11.96-1.62s-6.8-2.39-9.09-3.94l4.45-8.81c2.23,1.42,4.88,2.58,7.97,3.48,3.09.9,6.21,1.34,9.37,1.34,3.58,0,6.2-.48,7.83-1.44s2.46-2.27,2.46-3.94c0-1.36-.56-2.39-1.67-3.11-1.11-.71-2.57-1.25-4.36-1.62s-3.79-.71-5.98-1.02-4.39-.73-6.58-1.25c-2.19-.52-4.19-1.3-5.98-2.32-1.79-1.02-3.25-2.39-4.36-4.13-1.11-1.73-1.67-4.05-1.67-6.95,0-3.09.89-5.8,2.69-8.11,1.79-2.32,4.31-4.13,7.56-5.43,3.25-1.3,7.09-1.95,11.54-1.95,3.28,0,6.63.38,10.06,1.16,3.43.77,6.29,1.84,8.58,3.2l-4.54,8.81c-2.29-1.36-4.63-2.3-7.05-2.83-2.41-.52-4.79-.79-7.14-.79-3.46,0-6.06.51-7.79,1.53-1.73,1.02-2.6,2.33-2.6,3.94,0,1.48.56,2.6,1.67,3.34,1.11.74,2.57,1.32,4.36,1.72s3.79.77,5.98,1.11c2.19.34,4.37.77,6.54,1.3,2.16.53,4.16,1.27,5.98,2.23,1.82.96,3.29,2.31,4.4,4.03,1.11,1.73,1.67,3.99,1.67,6.77,0,3.15-.91,5.86-2.74,8.11-1.82,2.26-4.39,4.02-7.7,5.29-3.31,1.26-7.28,1.89-11.92,1.89h0Z"/>
      <path class="cls-14" d="m411.99,531.2v-7.33l30.51-36.91,2.23,3.99h-32.18v-9.27h41.36v7.33l-30.51,36.91-2.32-3.99h33.66v9.27h-42.75,0Z"/>
      <path class="cls-14" d="m468.64,549.84c-2.47,0-4.91-.4-7.33-1.2-2.41-.81-4.39-1.92-5.94-3.34l4.54-8.44c1.18.99,2.49,1.79,3.94,2.41,1.45.62,2.98.93,4.59.93,2.1,0,3.8-.53,5.1-1.57,1.3-1.05,2.51-2.84,3.62-5.38l2.78-6.31,1.11-1.48,18.64-43.77h11.13l-23.18,53.6c-1.55,3.65-3.26,6.54-5.14,8.67-1.88,2.13-3.99,3.65-6.31,4.54-2.31.9-4.82,1.35-7.55,1.35h0Zm10.11-16.88l-22.35-51.28h11.96l18.27,42.75-7.88,8.53h0Z"/>
      <path class="cls-14" d="m546.17,481.04c4.02,0,7.56.77,10.62,2.32,3.06,1.55,5.5,3.93,7.33,7.14s2.74,7.33,2.74,12.33v28.37h-11.59v-26.89c0-4.39-1.02-7.66-3.06-9.83-2.04-2.16-4.95-3.25-8.72-3.25-2.72,0-5.13.56-7.23,1.67s-3.72,2.77-4.87,4.96c-1.14,2.19-1.71,4.96-1.71,8.3v25.04h-11.5v-49.51h11.03v13.45l-1.95-4.17c1.67-3.15,4.16-5.59,7.46-7.33s7.13-2.6,11.45-2.6h0Z"/>
      <path class="cls-14" d="m200.66,642.48v-64.91h12.05v64.91h-12.05Zm10.66-15.3l-.56-14.28,33.94-35.33h13.63l-28.28,30.04-6.68,7.33-12.06,12.24h0Zm34.59,15.3l-24.94-29.58,8.07-8.81,31.07,38.39h-14.19Z"/>
      <path class="cls-14" d="m266.31,642.48v-49.52h11.03v13.63l-1.3-3.99c1.42-3.34,3.74-5.89,6.95-7.65s7.14-2.64,11.78-2.64v11.03c-.44-.06-.87-.11-1.3-.14-.44-.03-.83-.05-1.2-.05-4.45,0-7.97,1.27-10.57,3.8-2.6,2.54-3.89,6.4-3.89,11.59v23.93h-11.5Z"/>
      <path class="cls-14" d="m316.11,643.13c-3.71,0-6.95-.63-9.74-1.9-2.78-1.27-4.93-3.03-6.45-5.29-1.51-2.25-2.27-4.81-2.27-7.65s.66-5.29,2-7.51c1.33-2.23,3.51-3.99,6.54-5.29,3.03-1.3,7.05-1.95,12.05-1.95h14.37v7.7h-13.53c-3.89,0-6.54.63-7.93,1.9s-2.09,2.86-2.09,4.77c0,2.04.83,3.68,2.51,4.91,1.67,1.24,3.99,1.85,6.95,1.85s5.39-.65,7.65-1.95c2.25-1.3,3.91-3.21,4.96-5.75l1.85,6.95c-1.11,2.91-3.09,5.16-5.94,6.77-2.84,1.62-6.49,2.42-10.94,2.42h0Zm15.58-.65v-10.11l-.56-2.04v-17.53c0-3.4-1.04-6.04-3.11-7.93-2.07-1.88-5.21-2.83-9.41-2.83-2.72,0-5.41.44-8.07,1.3-2.66.87-4.95,2.07-6.86,3.62l-4.54-8.44c2.72-2.04,5.9-3.58,9.55-4.63,3.65-1.05,7.45-1.57,11.4-1.57,7.23,0,12.8,1.73,16.69,5.19,3.89,3.46,5.84,8.78,5.84,15.95v29.02h-10.95,0Z"/>
      <path class="cls-14" d="m352.27,661.12c-2.1,0-4.13-.25-6.08-.74-1.95-.5-3.6-1.2-4.96-2.13l3.34-8.62c1.79,1.3,4.05,1.95,6.77,1.95,2.1,0,3.74-.67,4.91-2,1.17-1.33,1.76-3.29,1.76-5.89v-50.72h11.59v50.44c0,5.44-1.5,9.75-4.5,12.94-3,3.19-7.27,4.77-12.84,4.77Zm11.5-76.31c-2.17,0-3.94-.68-5.33-2.04-1.39-1.36-2.09-3.03-2.09-5.01,0-1.86.69-3.46,2.09-4.82,1.39-1.36,3.17-2.04,5.33-2.04s3.94.63,5.33,1.9c1.39,1.27,2.09,2.89,2.09,4.87s-.68,3.66-2.04,5.05c-1.36,1.4-3.15,2.09-5.38,2.09h0Z"/>
      <path class="cls-14" d="m408.09,643.13c-5.5,0-10.31-1.1-14.42-3.29-4.11-2.19-7.29-5.19-9.55-8.99-2.26-3.8-3.38-8.18-3.38-13.12s1.1-9.32,3.29-13.12,5.22-6.8,9.09-9c3.86-2.19,8.27-3.29,13.22-3.29s9.12,1.06,12.89,3.2c3.77,2.13,6.74,5.12,8.9,8.95,2.16,3.83,3.25,8.38,3.25,13.63,0,.44-.01.97-.05,1.62s-.08,1.22-.14,1.72h-41.27v-7.7h35.14l-4.63,2.41c.06-2.78-.51-5.27-1.72-7.46-1.2-2.19-2.86-3.89-4.96-5.1-2.1-1.2-4.57-1.81-7.42-1.81s-5.27.6-7.46,1.81c-2.19,1.2-3.88,2.92-5.05,5.14-1.18,2.23-1.76,4.79-1.76,7.7v1.86c0,2.97.66,5.59,2,7.88,1.33,2.29,3.23,4.07,5.7,5.33,2.47,1.27,5.35,1.9,8.62,1.9,2.78,0,5.29-.46,7.51-1.39,2.23-.93,4.2-2.29,5.94-4.08l6.31,7.23c-2.29,2.6-5.12,4.57-8.48,5.94-3.38,1.36-7.23,2.03-11.55,2.03h0Z"/>
      <path class="cls-14" d="m470.59,592.31c4.02,0,7.56.77,10.62,2.32,3.06,1.55,5.5,3.93,7.33,7.14s2.74,7.33,2.74,12.33v28.37h-11.59v-26.89c0-4.39-1.02-7.66-3.06-9.83-2.04-2.16-4.95-3.25-8.72-3.25-2.72,0-5.13.56-7.23,1.67s-3.72,2.77-4.87,4.96c-1.14,2.19-1.71,4.96-1.71,8.3v25.04h-11.5v-49.51h11.03v13.45l-1.95-4.17c1.67-3.15,4.16-5.59,7.46-7.33,3.3-1.73,7.12-2.6,11.45-2.6h0Zm-11.41-6.12l12.52-12.71h13.72l-16.23,12.71h-10.02Z"/>
      <path class="cls-14" d="m521.41,643.13c-4.2,0-8.19-.54-11.96-1.62s-6.8-2.39-9.09-3.94l4.45-8.81c2.23,1.42,4.88,2.58,7.97,3.48,3.09.9,6.21,1.34,9.37,1.34,3.58,0,6.2-.48,7.83-1.44s2.46-2.27,2.46-3.94c0-1.36-.56-2.39-1.67-3.11-1.11-.71-2.57-1.25-4.36-1.62s-3.79-.71-5.98-1.02-4.39-.73-6.58-1.25-4.19-1.3-5.98-2.32c-1.79-1.02-3.25-2.39-4.36-4.13s-1.67-4.05-1.67-6.95c0-3.09.89-5.8,2.69-8.11,1.79-2.32,4.31-4.13,7.56-5.43,3.25-1.3,7.09-1.95,11.54-1.95,3.28,0,6.63.38,10.06,1.16,3.43.77,6.29,1.84,8.58,3.2l-4.54,8.81c-2.29-1.36-4.63-2.3-7.05-2.83-2.41-.52-4.79-.79-7.14-.79-3.46,0-6.06.51-7.79,1.53-1.73,1.02-2.6,2.33-2.6,3.94,0,1.48.56,2.6,1.67,3.34s2.57,1.32,4.36,1.72,3.79.77,5.98,1.11c2.19.34,4.37.77,6.54,1.3,2.16.53,4.16,1.27,5.98,2.23,1.82.96,3.29,2.31,4.4,4.03,1.11,1.73,1.67,3.99,1.67,6.77,0,3.15-.91,5.86-2.74,8.11-1.82,2.26-4.39,4.02-7.7,5.29-3.31,1.26-7.28,1.89-11.92,1.89h0Z"/>
      <path class="cls-14" d="m553.86,642.48v-68.81h11.5v68.81h-11.5Zm9.37-11.03l.28-14.56,25.87-23.93h13.91l-21.98,21.98-6.21,5.19-11.87,11.32h0Zm28,11.03l-18.27-22.35,7.33-9.27,24.94,31.62h-14Z"/>
      <path class="cls-14" d="m618.58,584.8c-2.16,0-3.94-.68-5.33-2.04s-2.09-3.03-2.09-5.01c0-1.86.69-3.46,2.09-4.82,1.39-1.36,3.17-2.04,5.33-2.04s3.94.63,5.33,1.9c1.39,1.27,2.09,2.89,2.09,4.87s-.68,3.66-2.04,5.05c-1.36,1.4-3.15,2.09-5.38,2.09Zm-5.75,57.68v-49.52h11.5v49.52h-11.5Z"/>
    </g>
  </g>
</svg>